<?xml version="1.0" encoding="UTF-8"?>
<svg xmlns="http://www.w3.org/2000/svg" xmlns:xlink="http://www.w3.org/1999/xlink" width="32px" height="32px" viewBox="0 0 32 32" version="1.1">
<g id="surface1">
<path style=" stroke:none;fill-rule:nonzero;fill:rgb(68.627453%,56.078434%,23.529412%);fill-opacity:1;" d="M 19.5625 2.9375 C 19.601562 2.949219 19.644531 2.960938 19.6875 2.972656 C 20.71875 3.265625 21.6875 3.664062 22.625 4.1875 C 22.683594 4.214844 22.738281 4.246094 22.796875 4.277344 C 23.675781 4.726562 24.449219 5.351562 25.1875 6 C 25.234375 6.039062 25.285156 6.082031 25.332031 6.121094 C 25.582031 6.332031 25.800781 6.554688 26.011719 6.804688 C 26.089844 6.894531 26.167969 6.984375 26.25 7.070312 C 28.5625 9.523438 29.699219 13.046875 29.625 16.375 C 29.457031 19.558594 28.378906 22.617188 26.195312 24.980469 C 26.078125 25.109375 25.96875 25.234375 25.859375 25.367188 C 23.734375 27.796875 20.402344 29.238281 17.222656 29.480469 C 16.164062 29.546875 15.109375 29.523438 14.0625 29.375 C 14.011719 29.367188 13.960938 29.363281 13.910156 29.355469 C 11.566406 29.023438 9.195312 27.964844 7.4375 26.375 C 7.34375 26.292969 7.253906 26.214844 7.160156 26.132812 C 7.121094 26.097656 7.082031 26.0625 7.042969 26.027344 C 6.957031 25.953125 6.867188 25.882812 6.777344 25.816406 C 6.601562 25.667969 6.460938 25.507812 6.3125 25.332031 C 6.175781 25.175781 6.035156 25.023438 5.890625 24.871094 C 3.414062 22.140625 2.511719 18.605469 2.625 15 C 2.660156 14.300781 2.78125 13.617188 2.9375 12.9375 C 2.949219 12.894531 2.957031 12.847656 2.96875 12.800781 C 3.636719 9.910156 5.417969 7.085938 7.8125 5.3125 C 7.878906 5.265625 7.941406 5.214844 8.007812 5.164062 C 8.84375 4.546875 9.738281 4.039062 10.6875 3.617188 C 10.800781 3.566406 10.914062 3.515625 11.027344 3.464844 C 13.628906 2.339844 16.84375 2.164062 19.5625 2.9375 Z M 16.6875 5.75 C 16.730469 6.324219 16.8125 6.894531 16.894531 7.464844 C 17.046875 8.546875 17.191406 9.628906 17.328125 10.714844 C 17.335938 10.777344 17.34375 10.839844 17.351562 10.902344 C 17.628906 13.105469 17.628906 13.105469 17.664062 14.082031 C 17.667969 14.140625 17.667969 14.203125 17.671875 14.261719 C 17.699219 15.113281 17.691406 15.960938 17.6875 16.8125 C 17.746094 16.792969 17.804688 16.773438 17.867188 16.757812 C 18.789062 16.472656 19.714844 16.496094 20.671875 16.496094 C 20.746094 16.496094 20.820312 16.496094 20.898438 16.496094 C 21.792969 16.5 22.683594 16.515625 23.578125 16.53125 C 23.746094 16.535156 23.917969 16.539062 24.085938 16.539062 C 24.496094 16.546875 24.902344 16.554688 25.3125 16.5625 C 25.253906 16.492188 25.253906 16.492188 25.195312 16.421875 C 25.078125 16.269531 25.011719 16.160156 24.949219 15.980469 C 24.933594 15.929688 24.914062 15.878906 24.894531 15.824219 C 24.875 15.769531 24.855469 15.714844 24.835938 15.65625 C 24.816406 15.597656 24.792969 15.539062 24.773438 15.476562 C 24.648438 15.121094 24.523438 14.765625 24.402344 14.410156 C 24.382812 14.351562 24.382812 14.351562 24.359375 14.289062 C 24.292969 14.097656 24.226562 13.902344 24.160156 13.707031 C 23.832031 12.738281 23.832031 12.738281 23.410156 11.808594 C 23.191406 11.382812 23.191406 11.382812 23.101562 11.195312 C 22.050781 8.972656 20.371094 6.878906 18.03125 5.976562 C 17.664062 5.851562 17.308594 5.738281 16.917969 5.746094 C 16.84375 5.746094 16.765625 5.75 16.6875 5.75 Z M 14.226562 6.304688 C 13.402344 6.886719 12.863281 7.710938 12.34375 8.5625 C 12.195312 8.800781 12.039062 9.035156 11.882812 9.269531 C 11.058594 10.496094 10.292969 11.765625 9.53125 13.027344 C 9.507812 13.066406 9.484375 13.105469 9.457031 13.148438 C 9.347656 13.332031 9.234375 13.519531 9.121094 13.707031 C 8.84375 14.167969 8.550781 14.617188 8.25 15.0625 C 8.140625 15.226562 8.03125 15.386719 7.925781 15.550781 C 7.867188 15.640625 7.808594 15.726562 7.75 15.8125 C 7.664062 15.945312 7.574219 16.078125 7.488281 16.210938 C 7.164062 16.695312 6.839844 17.179688 6.507812 17.664062 C 6.480469 17.703125 6.453125 17.742188 6.425781 17.785156 C 6.199219 18.113281 5.960938 18.429688 5.710938 18.738281 C 5.570312 19.0625 5.683594 19.316406 5.800781 19.632812 C 5.851562 19.769531 5.910156 19.898438 5.972656 20.03125 C 5.996094 20.078125 6.015625 20.128906 6.039062 20.175781 C 6.355469 20.871094 6.714844 21.542969 7.125 22.1875 C 7.167969 22.125 7.207031 22.0625 7.25 22 C 7.765625 21.222656 9.640625 20.988281 10.5 20.8125 C 10.707031 20.773438 10.914062 20.738281 11.121094 20.703125 C 11.164062 20.695312 11.210938 20.6875 11.253906 20.679688 C 12.007812 20.566406 12.765625 20.554688 13.523438 20.554688 C 13.613281 20.554688 13.699219 20.554688 13.789062 20.558594 C 14.019531 20.558594 14.246094 20.558594 14.476562 20.558594 C 14.710938 20.558594 14.949219 20.558594 15.183594 20.558594 C 15.644531 20.558594 16.101562 20.5625 16.5625 20.5625 C 16.535156 19.847656 16.488281 19.144531 16.398438 18.433594 C 15.871094 14.261719 15.839844 10.011719 15.6875 5.8125 C 15.1875 5.664062 14.636719 6.039062 14.226562 6.304688 Z M 17.6875 18 C 17.644531 18.980469 17.808594 19.773438 18.183594 20.671875 C 18.5 21.445312 18.515625 22.195312 18.195312 22.976562 C 17.941406 23.507812 17.519531 23.691406 16.992188 23.886719 C 15.429688 24.417969 13.953125 24.105469 12.484375 23.476562 C 12.015625 23.277344 11.558594 23.109375 11.0625 23 C 11 22.984375 10.941406 22.972656 10.878906 22.957031 C 9.851562 22.761719 8.777344 22.859375 7.75 23 C 7.785156 23.039062 7.785156 23.039062 7.820312 23.082031 C 7.851562 23.121094 7.886719 23.15625 7.917969 23.195312 C 7.96875 23.253906 7.96875 23.253906 8.023438 23.316406 C 8.109375 23.417969 8.191406 23.519531 8.273438 23.625 C 8.535156 23.925781 8.820312 24.207031 9.1875 24.375 C 9.1875 24.417969 9.1875 24.457031 9.1875 24.5 C 9.335938 24.613281 9.484375 24.71875 9.636719 24.820312 C 9.683594 24.851562 9.730469 24.882812 9.777344 24.914062 C 9.871094 24.976562 9.964844 25.039062 10.058594 25.101562 C 10.167969 25.171875 10.277344 25.246094 10.382812 25.320312 C 11.402344 25.988281 12.574219 26.410156 13.75 26.6875 C 13.792969 26.699219 13.839844 26.707031 13.886719 26.71875 C 16.601562 27.339844 19.53125 26.726562 21.882812 25.28125 C 24.210938 23.808594 25.835938 21.5625 26.625 18.9375 C 26.625 18.917969 26.625 18.894531 26.625 18.875 C 26.511719 18.867188 26.511719 18.867188 26.398438 18.855469 C 25.683594 18.800781 24.96875 18.746094 24.25 18.6875 C 23.882812 18.660156 23.515625 18.632812 23.148438 18.601562 C 23.078125 18.597656 23.007812 18.589844 22.933594 18.585938 C 22.789062 18.574219 22.648438 18.5625 22.503906 18.550781 C 22.152344 18.523438 21.800781 18.496094 21.449219 18.46875 C 21.3125 18.457031 21.175781 18.449219 21.039062 18.4375 C 20.972656 18.429688 20.902344 18.425781 20.835938 18.421875 C 20.460938 18.390625 20.082031 18.363281 19.707031 18.335938 C 19.488281 18.320312 19.269531 18.304688 19.050781 18.289062 C 18.953125 18.28125 18.851562 18.273438 18.753906 18.265625 C 18.621094 18.257812 18.484375 18.246094 18.351562 18.238281 C 18.238281 18.230469 18.238281 18.230469 18.125 18.222656 C 17.925781 18.1875 17.835938 18.132812 17.6875 18 Z M 17.6875 18 "/>
<path style=" stroke:none;fill-rule:nonzero;fill:rgb(68.627453%,56.078434%,23.529412%);fill-opacity:1;" d="M 15.875 0.480469 C 16.074219 0.480469 16.269531 0.480469 16.46875 0.476562 C 17.578125 0.472656 18.644531 0.589844 19.71875 0.859375 C 19.785156 0.875 19.847656 0.890625 19.914062 0.90625 C 22.097656 1.460938 24.128906 2.449219 25.875 3.875 C 25.910156 3.902344 25.945312 3.929688 25.980469 3.960938 C 26.835938 4.660156 27.640625 5.433594 28.3125 6.3125 C 28.367188 6.382812 28.425781 6.453125 28.480469 6.523438 C 30.261719 8.777344 31.34375 11.605469 31.605469 14.457031 C 31.609375 14.5 31.613281 14.542969 31.617188 14.585938 C 31.875 17.414062 31.382812 20.257812 30.125 22.8125 C 30.089844 22.890625 30.089844 22.890625 30.050781 22.96875 C 29.40625 24.289062 28.566406 25.464844 27.570312 26.539062 C 27.429688 26.6875 27.429688 26.6875 27.3125 26.875 C 27.269531 26.875 27.230469 26.875 27.1875 26.875 C 27.1875 26.917969 27.1875 26.957031 27.1875 27 C 27.101562 27.085938 27.101562 27.085938 26.980469 27.1875 C 26.773438 27.363281 26.574219 27.542969 26.378906 27.726562 C 23.261719 30.554688 19.148438 31.742188 15 31.554688 C 13.339844 31.449219 11.726562 31.058594 10.1875 30.4375 C 10.113281 30.40625 10.039062 30.378906 9.964844 30.347656 C 8.230469 29.632812 6.65625 28.554688 5.3125 27.25 C 5.257812 27.195312 5.257812 27.195312 5.199219 27.144531 C 4.644531 26.609375 4.144531 26.058594 3.6875 25.4375 C 3.644531 25.378906 3.597656 25.320312 3.550781 25.257812 C 3.234375 24.835938 2.953125 24.394531 2.6875 23.9375 C 2.652344 23.878906 2.652344 23.878906 2.617188 23.820312 C 2.066406 22.875 1.640625 21.925781 1.296875 20.890625 C 1.257812 20.773438 1.21875 20.660156 1.179688 20.542969 C 0.472656 18.4375 0.308594 15.882812 0.6875 13.6875 C 0.699219 13.628906 0.707031 13.570312 0.71875 13.507812 C 1.019531 11.785156 1.550781 10.171875 2.375 8.625 C 2.394531 8.585938 2.417969 8.542969 2.4375 8.503906 C 2.945312 7.539062 3.582031 6.667969 4.296875 5.851562 C 4.4375 5.695312 4.4375 5.695312 4.542969 5.539062 C 4.570312 5.507812 4.597656 5.472656 4.625 5.4375 C 4.667969 5.4375 4.707031 5.4375 4.75 5.4375 C 4.773438 5.382812 4.773438 5.382812 4.800781 5.328125 C 4.882812 5.175781 4.972656 5.074219 5.09375 4.953125 C 5.132812 4.914062 5.167969 4.875 5.210938 4.835938 C 5.3125 4.75 5.3125 4.75 5.4375 4.75 C 5.46875 4.65625 5.46875 4.65625 5.5 4.5625 C 5.542969 4.5625 5.582031 4.5625 5.625 4.5625 C 5.625 4.519531 5.625 4.480469 5.625 4.4375 C 5.734375 4.335938 5.847656 4.242188 5.960938 4.148438 C 6.023438 4.097656 6.085938 4.046875 6.148438 3.992188 C 6.3125 3.875 6.3125 3.875 6.4375 3.875 C 6.4375 3.832031 6.4375 3.792969 6.4375 3.75 C 6.53125 3.667969 6.53125 3.667969 6.664062 3.574219 C 6.738281 3.519531 6.738281 3.519531 6.816406 3.464844 C 6.871094 3.429688 6.925781 3.390625 6.980469 3.351562 C 7.035156 3.3125 7.09375 3.273438 7.152344 3.234375 C 9.746094 1.460938 12.726562 0.472656 15.875 0.480469 Z M 13.9375 1.9375 C 13.886719 1.945312 13.835938 1.953125 13.785156 1.964844 C 13.117188 2.082031 12.460938 2.230469 11.8125 2.4375 C 11.734375 2.460938 11.65625 2.484375 11.578125 2.511719 C 10.300781 2.921875 9.105469 3.558594 8 4.3125 C 7.957031 4.34375 7.910156 4.371094 7.863281 4.402344 C 7.738281 4.488281 7.613281 4.578125 7.488281 4.664062 C 7.449219 4.691406 7.414062 4.714844 7.375 4.742188 C 7.289062 4.804688 7.207031 4.871094 7.125 4.9375 C 7.125 4.980469 7.125 5.019531 7.125 5.0625 C 7.089844 5.074219 7.058594 5.089844 7.023438 5.101562 C 6.820312 5.21875 6.65625 5.375 6.488281 5.535156 C 6.453125 5.570312 6.417969 5.601562 6.378906 5.636719 C 6.273438 5.738281 6.167969 5.835938 6.0625 5.9375 C 6.011719 5.988281 5.957031 6.035156 5.902344 6.089844 C 5.015625 6.953125 4.296875 7.988281 3.6875 9.0625 C 3.667969 9.097656 3.644531 9.136719 3.621094 9.175781 C 3.242188 9.839844 2.953125 10.535156 2.6875 11.25 C 2.671875 11.292969 2.65625 11.332031 2.640625 11.375 C 1.625 14.109375 1.609375 17.21875 2.4375 20 C 2.460938 20.078125 2.460938 20.078125 2.480469 20.15625 C 3.054688 22.113281 4.085938 23.84375 5.40625 25.378906 C 5.507812 25.5 5.605469 25.621094 5.699219 25.742188 C 5.738281 25.785156 5.773438 25.828125 5.8125 25.875 C 5.855469 25.875 5.894531 25.875 5.9375 25.875 C 5.9375 25.917969 5.9375 25.957031 5.9375 26 C 6.039062 26.085938 6.144531 26.167969 6.25 26.25 C 6.355469 26.355469 6.457031 26.457031 6.5625 26.5625 C 7.582031 27.519531 8.734375 28.289062 10 28.875 C 10.039062 28.894531 10.078125 28.914062 10.121094 28.929688 C 11.5625 29.609375 13.105469 30.023438 14.6875 30.1875 C 14.746094 30.195312 14.804688 30.203125 14.863281 30.207031 C 17.324219 30.464844 19.972656 29.984375 22.1875 28.875 C 22.269531 28.835938 22.347656 28.796875 22.429688 28.761719 C 23.59375 28.199219 24.660156 27.460938 25.601562 26.578125 C 25.730469 26.453125 25.863281 26.339844 26 26.226562 C 28.292969 24.222656 29.757812 21.089844 30.1875 18.125 C 30.195312 18.074219 30.203125 18.027344 30.210938 17.972656 C 30.441406 16.300781 30.355469 14.585938 30 12.9375 C 29.984375 12.863281 29.96875 12.785156 29.953125 12.707031 C 29.6875 11.546875 29.257812 10.417969 28.6875 9.375 C 28.644531 9.289062 28.597656 9.207031 28.554688 9.121094 C 28.058594 8.207031 27.441406 7.40625 26.777344 6.609375 C 26.71875 6.539062 26.660156 6.46875 26.601562 6.394531 C 26.457031 6.214844 26.308594 6.058594 26.132812 5.910156 C 25.96875 5.773438 25.820312 5.632812 25.671875 5.480469 C 25.441406 5.25 25.195312 5.050781 24.9375 4.855469 C 24.890625 4.820312 24.84375 4.785156 24.796875 4.75 C 22.921875 3.34375 20.921875 2.464844 18.625 2 C 18.566406 1.988281 18.511719 1.976562 18.449219 1.964844 C 17.6875 1.816406 16.921875 1.800781 16.148438 1.800781 C 16.101562 1.800781 16.054688 1.800781 16.007812 1.800781 C 15.308594 1.800781 14.625 1.816406 13.9375 1.9375 Z M 13.9375 1.9375 "/>
</g>
</svg>
